**ABCDEFGHIJKLMNOPQRSTUVWXYZabcdefghijklmnopqrstuvwxyz**************************
**PARASOLID !"#$%&'()*+,-./:;<=>?@[\]^_`{|}~0123456789**************************
**PART1;
MC=AMD64;
MC_MODEL=Intel64 Family 6 Model 26 Stepping 5, GenuineIntel;
MC_ID=unknown;
OS=Windows_NT;
OS_RELEASE=unknown;
FRU=Parasolid Version 31.1, build 284, 10- 9-2019;
APPL=SOLIDWORKS 2020-2019357;
SITE=;
USER=unknown;
FORMAT=text;
GUISE=transmit;
KEY=makeProjectedPlanarWire;
FILE=makeProjectedPlanarWire.x_t;
DATE=Mon May 10 14:55:28 2021;
**PART2;
SCH=SCH_3101284_31100;
USFLD_SIZE=0;
**PART3;
**END_OF_HEADER*****************************************************************
T51 : TRANSMIT FILE created by modeller version 310128423 SCH_3101284_31100_1300
6222 0 12 34 CCCCCCI4 mesh1006 0 I8 polyline1008 0 CCCCCCCDI5 owner1040 0 CCCCCC
I13 boundary_mesh1006 0 I17 boundary_polyline1008 0 CCCA16 index_map_offset0 0 1
 dA9 index_map82 0 A17 node_id_index_map82 0 A20 schema_embedding_map82 0 A5 chi
ld12 0 A14 lowest_node_id0 0 1 dA16 mesh_offset_data206 0 Z1 66 2 3 0 0 0 0 0 0
 1e3 1e-8 0 4 0 1 0 3 1 5 6 7 8 0 0 9 10 11 0 0 0 0 0 0 0 81 255 2 2 56 12 1 0 0
 0 0 13 0 70 11 CI9 list_type0 0 1 uI10 notransmit0 0 1 lCCCDCCDI12 finger_index
0 0 1 dI12 finger_block1012 0 CZ3 0 4 T1 0 0 2 20 1 14 14 13 255 5 63 0 1 0 15 0
 0 9 15 50 255 6 3 0 15 0 0 0 +0 0 .0095 0 0 1 1 0 0 30 255 7 31 0 10 16 0 0 +.0
01398000001907348 .0972529983520508 .0095 -1 0 0 29 255 8 55 0 11 17 0 -.0123578
2134308746 .0972529983520508 .0095 19 8 CCCCCCCA5 owner12 0 Z9 62 0 1 0 0 5 V0 1
6 255 10 29 0 ?18 0 19 7 0 0 1 18 255 11 53 0 20 0 21 8 ?1 17 255 20 0 0 0 0 11
 22 23 0 18 -18 21 50 0 24 11 25 17 ?1 17 24 0 26 18 27 21 28 19 0 29 +18 25 47
 0 27 21 30 31 ?1 29 17 52 0 21 31 8 .001398000001907348 .0972529983520508 .0095
 29 31 49 0 25 32 17 .00139800000190735 .0834228744506836 .0095 29 32 46 0 30 33
 31 -.01235782134308746 .0834228744506836 .0095 18 30 44 0 22 25 34 32 ?1 29 33
 43 0 34 35 32 .00239800000190735 .0982529983520508 .0095 18 34 41 0 36 30 37 33
 ?1 29 35 40 0 37 38 33 -.01335782134308746 .0982529983520508 .0095 18 37 38 0 3
9 34 40 35 ?1 29 38 37 0 40 41 35 -.01335782134308746 .0824228744506836 .0095 18
 40 35 0 42 37 43 38 ?1 29 41 34 0 43 0 38 .00239800000190735 .0824228744506836
 .0095 18 43 32 0 44 40 0 41 ?1 17 44 0 45 42 46 43 36 47 0 48 -15 255 45 6 0 44
 15 26 17 42 0 45 39 44 40 48 49 0 50 -17 46 0 45 44 39 34 51 52 0 0 -17 36 0 0
 0 0 34 44 47 0 46 +16 47 8 0 ?36 49 0 53 0 0 1 17 48 0 0 0 0 43 42 49 0 0 +16 4
9 11 0 ?48 54 47 55 0 0 1 16 54 14 0 ?50 52 49 56 0 0 1 30 55 13 0 49 53 56 0 +.
00239800000190735 .0824228744506836 .0095 1 0 0 30 53 10 0 47 0 55 0 +.002398000
00190735 .0824228744506836 .0095 0 1 0 30 56 16 0 54 55 57 0 +-.0133578213430874
6 .0824228744506836 .0095 0 -1 0 30 57 19 0 52 56 58 0 +.00239800000190735 .0982
529983520508 .0095 -1 0 0 16 52 17 0 ?51 23 54 57 0 0 1 30 58 22 0 23 57 59 0 +-
.01235782134308746 .0834228744506836 .0095 1254307978980088e-31 -1 0 16 23 20 0
 ?22 60 52 58 0 0 1 30 59 25 0 60 58 16 0 +.00139800000190735 .0834228744506836
 .0095 1 0 0 16 60 23 0 ?27 19 23 59 0 0 1 30 16 28 0 19 59 7 0 +.00139800000190
735 .0834228744506836 .0095 -188146196847013e-30 1 0 16 19 26 0 ?24 10 60 16 0 0
 1 17 27 0 26 24 22 25 61 60 0 28 +15 26 7 0 22 15 0 17 22 0 26 27 18 30 20 23 0
 61 +17 61 0 0 0 0 30 27 60 0 0 -17 28 0 0 0 0 25 24 19 0 0 -17 18 0 26 22 24 11
 29 10 0 0 +17 29 0 0 0 0 21 18 10 0 0 -14 255 15 1 62 ?0 0 45 5 6 -0 0 0 0 5 81
 1 62 66 63 15 0 0 0 0 64 80 255 1 63 65 66 9000 1 1 1 1 1 1 1 1 0 FFFFTFTFFFFFF
F1 82 255 1 64 -1628438324 79 255 14 66 SWEntUnchanged17 51 0 0 0 0 37 46 52 0 0
 +17 50 0 0 0 0 40 39 54 0 0 +17 39 0 45 46 42 37 50 54 0 51 -74 4 CI16 index_ma
p_offset0 0 1 dCCZ20 14 2 0 0 2 62 0 0 0 0 0 0 0 0 0 0 0 0 0 0 0 0 0 0 80 2 12 6
7 68 8004 0 0 0 0 3 5 0 0 0 FFTFFFFFFFFFFF2 3 83 255 1 13 1 79 16 68 SDL/TYSA_DE
NSITY1 0 
