**ABCDEFGHIJKLMNOPQRSTUVWXYZabcdefghijklmnopqrstuvwxyz**************************
**PARASOLID !"#$%&'()*+,-./:;<=>?@[\]^_`{|}~0123456789**************************
**PART1;
MC=AMD64;
MC_MODEL=Intel64 Family 6 Model 26 Stepping 5, GenuineIntel;
MC_ID=unknown;
OS=Windows_NT;
OS_RELEASE=unknown;
FRU=Parasolid Version 31.1, build 284, 10- 9-2019;
APPL=SOLIDWORKS 2020-2019357;
SITE=;
USER=unknown;
FORMAT=text;
GUISE=transmit;
KEY=makeProjectedPlanarWire;
FILE=makeProjectedPlanarWire.x_t;
DATE=Fri Aug 13 11:05:03 2021;
**PART2;
SCH=SCH_3101284_31100;
USFLD_SIZE=0;
**PART3;
**END_OF_HEADER*****************************************************************
T51 : TRANSMIT FILE created by modeller version 310128423 SCH_3101284_31100_1300
6222 0 12 34 CCCCCCI4 mesh1006 0 I8 polyline1008 0 CCCCCCCDI5 owner1040 0 CCCCCC
I13 boundary_mesh1006 0 I17 boundary_polyline1008 0 CCCA16 index_map_offset0 0 1
 dA9 index_map82 0 A17 node_id_index_map82 0 A20 schema_embedding_map82 0 A5 chi
ld12 0 A14 lowest_node_id0 0 1 dA16 mesh_offset_data206 0 Z1 1586 0 0 0 0 0 0 0
 0 1e3 1e-8 0 2 0 1 0 3 1 3 4 5 6 0 0 7 8 9 0 0 0 0 0 0 0 13 255 3 314 0 1 0 10
 0 0 7 10 50 255 4 3 0 10 0 0 0 +0 -.01 0 0 1 0 0 0 1 30 255 5 210 0 8 11 0 0 +.
00125 -.01 0 0 0 -1 29 255 6 312 0 9 12 0 .00125 -.01 -.012 19 8 CCCCCCCA5 owner
12 0 Z7 313 0 1 0 0 3 V0 16 255 8 208 0 ?13 0 14 5 0 0 1 18 255 9 310 0 15 0 16
 6 ?1 17 255 15 0 0 0 0 9 17 18 0 19 -18 16 307 0 20 9 21 12 ?1 17 20 0 22 19 23
 16 24 14 0 13 +18 21 304 0 23 16 25 26 ?1 29 12 309 0 16 26 6 .00125 -.01 -.014
5 29 26 306 0 21 27 12 .004 -.01 -.0145 29 27 303 0 25 28 26 .004 -.01 -.0155 18
 25 301 0 29 21 30 27 ?1 29 28 300 0 30 31 27 .00795 -.01 -.0155 18 30 298 0 32
 25 33 28 ?1 29 31 297 0 33 34 28 .00825 -.01 -.0152 18 33 295 0 35 30 36 31 ?1
 29 34 294 0 36 37 31 .00825000000000009 -.01 -.00125 18 36 292 0 38 33 39 34 ?1
 29 37 291 0 39 40 34 .00825 -.01 .00749869362297588 18 39 289 0 41 36 42 37 ?1
 29 40 288 0 42 43 37 .00825 -.01 .0095 18 42 286 0 44 39 45 40 ?1 29 43 279 0 4
5 46 40 -.00824956597294655 -.01 .0095 18 45 277 0 47 42 48 43 ?1 29 46 276 0 48
 49 43 -.00824956597294655 -.01 .00746238818942047 18 48 274 0 50 45 51 46 ?1 29
 49 273 0 51 52 46 -.00824956597294654 -.01 -.00123135785344813 18 51 271 0 53 4
8 54 49 ?1 29 52 270 0 54 55 49 -.00824956597294655 -.01 -.01225 18 54 268 0 56
 51 57 52 ?1 29 55 267 0 57 58 52 -.00525 -.01 -.01225 18 57 265 0 59 54 60 55 ?
1 29 58 264 0 60 61 55 -.00525 -.01 -.013 18 60 262 0 62 57 63 58 ?1 29 61 261 0
 63 64 58 -.007 -.01 -.013 18 63 259 0 65 60 66 61 ?1 29 64 258 0 66 67 61 -.007
 -.01 -.0155 18 66 256 0 68 63 69 64 ?1 29 67 255 0 69 70 64 -.004 -.01 -.0155 1
8 69 253 0 71 66 72 67 ?1 29 70 252 0 72 73 67 -.004 -.01 -.0145 18 72 250 0 74
 69 75 70 ?1 29 73 249 0 75 76 70 -.00125 -.01 -.0145 18 75 247 0 77 72 78 73 ?1
 29 76 246 0 78 79 73 -.00125 -.01 -.012 18 78 244 0 80 75 81 76 ?1 29 79 243 0
 81 82 76 -.00175 -.01 -.012 18 81 241 0 83 78 84 79 ?1 29 82 240 0 84 85 79 .00
175 -.01 -.012 18 84 238 0 17 81 86 82 ?1 29 85 237 0 86 87 82 .0025000000000000
9 -.01 .00849 18 86 235 0 88 84 89 85 ?1 29 87 234 0 89 90 85 -.0024999999999999
1 -.01 .00849 18 89 232 0 91 86 92 87 ?1 29 90 231 0 92 93 87 -.0024999999999999
1 -.01 .00949 18 92 229 0 94 89 95 90 ?1 29 93 228 0 95 96 90 .00250000000000009
 -.01 .00949 18 95 226 0 97 92 98 93 ?1 29 96 225 0 98 99 93 -.00723999999999991
 -.01 -.00125 18 98 223 0 100 95 101 96 ?1 29 99 222 0 101 102 96 -.007239999999
99991 -.01 -.00325 18 101 220 0 103 98 104 99 ?1 29 102 219 0 104 105 99 -.00823
999999999991 -.01 -.00325 18 104 217 0 106 101 107 102 ?1 29 105 216 0 107 0 102
 -.00823999999999991 -.01 -.00125 18 107 214 0 108 104 0 105 ?1 17 108 0 109 106
 110 107 100 111 0 112 +15 255 109 7 0 108 10 113 17 106 0 109 103 108 104 112 1
14 0 115 +17 110 0 109 108 103 98 116 117 0 0 -17 100 0 0 0 0 98 108 111 0 110 -
16 111 10 0 ?108 114 0 118 0 0 1 17 112 0 0 0 0 107 106 114 0 0 -16 114 16 0 ?10
6 119 111 120 0 0 1 16 119 22 0 ?115 117 114 121 0 0 1 30 120 18 0 114 118 121 0
 +-.00823999999999991 -.01 0 0 0 -1 30 118 12 0 111 0 120 0 +0 -.01 -.00125 -1 0
 0 30 121 24 0 119 120 122 0 +0 -.01 -.00325 -1 0 0 30 122 30 0 117 121 123 0 +-
.00723999999999991 -.01 313984949151798e-32 -433680868994202e-30 0 -1 16 117 28
 0 ?116 124 119 122 0 0 1 30 123 36 0 124 122 125 0 +.00250000000000009 -.01 0 0
 0 -1 16 124 34 0 ?88 126 117 123 0 0 1 30 125 42 0 126 123 127 0 +-329250515740
398e-32 -.01 .00949 1 0 3469446951953615e-31 16 126 40 0 ?128 129 124 125 0 0 1
 30 127 48 0 129 125 130 0 +-.00249999999999991 -.01 0 0 0 -1 16 129 46 0 ?91 13
1 126 127 0 0 1 30 130 54 0 131 127 132 0 +0 -.01 .00849 1 0 0 16 131 52 0 ?133
 18 129 130 0 0 1 30 132 60 0 18 130 134 0 +0 -.01 -.012 1 0 0 16 18 58 0 ?17 13
5 131 132 136 136 1 31 255 134 66 0 135 132 137 0 --650521303491303e-33 -.01 -.0
12 0 1 0 0 0 1 .00175 16 135 64 0 ?83 136 18 134 0 0 1 30 137 76 0 138 134 139 0
 +-.00125 -.01 0 0 0 -1 16 138 74 0 ?77 140 136 137 0 0 1 30 139 82 0 140 137 14
1 0 +0 -.01 -.0145 -1 0 0 16 140 80 0 ?74 142 138 139 14 14 1 30 141 88 0 142 13
9 143 0 +-.004 -.01 3469446951953605e-33 867361737988403e-30 0 1 16 142 86 0 ?14
4 145 140 141 0 0 1 30 143 94 0 145 141 146 0 +0 -.01 -.0155 1 0 0 16 145 92 0 ?
147 148 142 143 149 149 1 30 146 100 0 148 143 150 0 +-.007 -.01 0 0 0 1 16 148
 98 0 ?65 151 145 146 0 0 1 30 150 106 0 151 146 152 0 +751713506256616e-32 -.01
 -.013 -1 0 -578241158658936e-30 16 151 104 0 ?153 154 148 150 0 0 1 30 152 112
 0 154 150 155 0 +-.00525 -.01 60715321659188e-31 115648231731787e-29 0 1 16 154
 110 0 ?59 156 151 152 0 0 1 30 155 118 0 156 152 157 0 +0 -.01 -.01225 -1 0 0 1
6 156 116 0 ?56 158 154 155 0 0 1 30 157 124 0 158 155 159 0 +-.0082495659729465
5 -.01 0 0 0 -1 16 158 122 0 ?160 161 156 157 0 0 1 31 159 130 0 161 157 162 0 +
-.1953551905623425 -.01 .003115515167987565 0 1 0 0 0 1 .1871561114632715 16 161
 128 0 ?163 164 158 159 0 0 1 30 162 136 0 164 159 165 0 +-.00824956597294655 -.
01 0 0 0 -1 16 164 134 0 ?166 167 161 162 0 0 1 30 165 144 0 167 162 168 0 +0 -.
01 .0095 -1 0 0 16 167 142 0 ?169 170 164 165 0 0 1 30 168 168 0 170 165 171 0 +
.00825 -.01 -715106334597769e-32 866795557088206e-30 0 1 16 170 166 0 ?172 173 1
67 168 0 0 1 31 171 176 0 173 168 174 0 -7.14643642700912 -.01 .0031243468114879
4 0 1 0 0 0 1 7.13818776732913 16 173 174 0 ?38 175 170 171 0 0 1 30 174 182 0 1
75 171 176 0 +.0082500000000001 -.01 -543733218545425e-31 65907056793384e-28 0 1
 16 175 180 0 ?177 178 173 174 0 0 1 31 176 190 0 178 174 11 0 -.00795 -.01 -.01
52 0 1 0 0 0 1 3e-4 16 178 188 0 ?179 149 175 176 0 0 1 30 11 200 0 180 176 5 0
 +.004 -.01 0 0 0 1 16 180 198 0 ?23 14 149 11 0 0 1 17 23 0 22 20 29 21 181 180
 0 24 +16 14 204 0 ?20 8 180 139 140 140 1 16 149 194 0 ?182 180 178 143 145 145
 1 17 182 0 0 0 0 30 29 149 0 0 +17 29 0 22 23 32 25 182 149 0 181 -15 22 9 0 17
 10 0 17 32 0 22 29 35 30 179 178 0 182 -17 181 0 0 0 0 25 23 180 0 0 -17 35 0 2
2 32 38 33 177 175 0 179 -17 179 0 0 0 0 33 32 178 0 0 +17 38 0 22 35 41 36 183
 173 0 177 +17 177 0 0 0 0 36 35 175 0 0 +17 41 0 22 38 44 39 172 170 0 183 -17
 183 0 0 0 0 39 38 173 0 0 -17 44 0 22 41 47 42 169 167 0 172 -17 172 0 0 0 0 42
 41 170 0 0 +17 47 0 22 44 50 45 166 164 0 169 -17 169 0 0 0 0 45 44 167 0 0 +17
 50 0 22 47 53 48 163 161 0 166 -17 166 0 0 0 0 48 47 164 0 0 +17 53 0 22 50 56
 51 160 158 0 163 -17 163 0 0 0 0 51 50 161 0 0 +17 56 0 22 53 59 54 184 156 0 1
60 +17 160 0 0 0 0 54 53 158 0 0 +17 59 0 22 56 62 57 185 154 0 184 +17 184 0 0
 0 0 57 56 156 0 0 -17 62 0 22 59 65 60 153 151 0 185 -17 185 0 0 0 0 60 59 154
 0 0 -17 65 0 22 62 68 63 186 148 0 153 +17 153 0 0 0 0 63 62 151 0 0 +17 68 0 2
2 65 71 66 147 145 0 186 -17 186 0 0 0 0 66 65 148 0 0 -17 71 0 22 68 74 69 144
 142 0 147 -17 147 0 0 0 0 69 68 145 0 0 +17 74 0 22 71 77 72 187 140 0 144 +17
 144 0 0 0 0 72 71 142 0 0 +17 77 0 22 74 80 75 188 138 0 187 +17 187 0 0 0 0 75
 74 140 0 0 -17 80 0 22 77 83 78 189 136 0 188 +17 188 0 0 0 0 78 77 138 0 0 -17
 83 0 22 80 17 81 190 135 0 189 +17 189 0 0 0 0 81 80 136 0 0 -16 136 70 0 ?80 1
38 135 132 18 18 1 17 17 0 22 83 19 84 15 18 0 190 +17 190 0 0 0 0 84 83 135 0 0
 -17 19 0 22 17 20 9 13 8 0 0 -17 13 0 0 0 0 16 19 8 0 0 +14 255 10 1 0 ?0 0 109
 3 4 +0 0 0 0 3 17 24 0 0 0 0 21 20 14 0 0 -17 133 0 113 97 91 86 191 131 0 0 +1
5 113 8 0 97 10 22 17 97 0 113 94 133 95 88 124 0 128 -17 91 0 113 133 94 89 192
 129 0 191 +17 191 0 0 0 0 89 133 131 0 0 -17 94 0 113 91 97 92 128 126 0 192 -1
7 192 0 0 0 0 92 91 129 0 0 -17 128 0 0 0 0 95 94 126 0 0 +17 88 0 0 0 0 86 97 1
24 0 133 +17 116 0 0 0 0 101 110 117 0 0 +17 115 0 0 0 0 104 103 119 0 0 +17 103
 0 109 110 106 101 115 119 0 116 -1 0 
