<?xml version="1.0" standalone="no"?>
<!DOCTYPE svg PUBLIC "-//W3C//DTD SVG 1.1//EN"
  "http://www.w3.org/Graphics/SVG/1.1/DTD/svg11.dtd">
<svg width="17.955132246017456mm" height="17.188796997070312mm" viewBox="-14.527558326721191 -99.44599914550781 17.955132246017456 17.188796997070312" xmlns="http://www.w3.org/2000/svg" version="1.1">
	<title>svgOutput</title>
	<desc>made with tinkercad</desc>
<path d="M -13.409000396728516 -84.10399627685547 L -13.479426383972168 -84.5115737915039 L -13.527525901794434 -84.78993225097656 L -13.527558326721191 -84.79012298583984 L -13.002293586730957 -83.88322448730469 L -12.925000190734863 -83.74979400634766 L -12.678348541259766 -83.3239974975586 L -12.63965892791748 -83.25720977783203 L -12.742050170898438 -83.3239974975586 L -12.925000190734863 -83.4433364868164 L -12.994999885559082 -83.48899841308594 L -13.24807071685791 -83.86493682861328 L -13.409000396728516 -84.10399627685547 M -2.9100000858306885 -97.96600341796875 L -2.6649999618530273 -97.83822631835938 L -1.8420000076293945 -97.40899658203125 L -1.6313847303390503 -97.24137878417969 L -1.2451549768447876 -96.93399810791016 L -0.9259999990463257 -96.68000030517578 L -0.5622096061706543 -96.270263671875 L -1.263068437576294 -96.66305541992188 L -1.4404529333114624 -96.76285552978516 L -1.622069239616394 -96.84435272216797 L -1.8218365907669067 -96.93399810791016 L -2.0459845066070557 -97.03458404541016 L -2.3533871173858643 -97.17213439941406 L -2.355466604232788 -97.17306518554688 L -2.6649999618530273 -97.27946472167969 L -2.7922449111938477 -97.32320404052734 L -3.2044456005096436 -97.46510314941406 L -3.2060000896453857 -97.4654769897461 L -3.5179998874664307 -97.54073333740234 L -4.009744644165039 -97.65931701660156 L -4.0960001945495605 -97.67169189453125 L -4.237981796264648 -97.69205474853516 L -4.786012172698975 -97.77071380615234 L -4.787327289581299 -97.77090454101562 L -4.966689586639404 -97.77955627441406 L -5.550000190734863 -97.80809783935547 L -5.7182230949401855 -97.79998779296875 L -6.3136725425720215 -97.77090454101562 L -6.50995397567749 -97.74275207519531 L -7.090531349182129 -97.659423828125 L -7.091255187988281 -97.65931701660156 L -7.364077091217041 -97.59344482421875 L -7.896220684051514 -97.46510314941406 L -8.192000389099121 -97.36349487304688 L -8.308968544006348 -97.32331085205078 L -8.740267753601074 -97.17487335205078 L -8.745532989501953 -97.17306518554688 L -9.0600004196167 -97.0320053100586 L -9.287400245666504 -96.93000030517578 L -9.382884979248047 -96.88716888427734 L -9.660547256469727 -96.76285552978516 L -9.795000076293945 -96.68745422363281 L -10.539725303649902 -96.26981353759766 L -10.393512725830078 -96.43470001220703 L -10.175999641418457 -96.68000030517578 L -10.174351692199707 -96.68131256103516 L -9.795000076293945 -96.98322296142578 L -9.751864433288574 -97.01754760742188 L -9.469905853271484 -97.241943359375 L -9.260000228881836 -97.40899658203125 L -9.0600004196167 -97.5132064819336 L -8.192000389099121 -97.9654769897461 L -8.190999984741211 -97.96600341796875 L -7.0179972648620605 -98.30400085449219 L -6.959000110626221 -98.32099914550781 L -5.550000190734863 -98.44599914550781 L -4.142000198364258 -98.32099914550781 L -4.083003044128418 -98.30400085449219 L -3.2060000896453857 -98.0512924194336 L -2.9100000858306885 -97.96600341796875 M 1.538643717765808 -83.2572021484375 L 1.5499999523162842 -83.27680969238281 L 2.0961596965789795 -84.21988677978516 L 2.4275739192962646 -84.79113006591797 L 2.3084516525268555 -84.10659790039062 L 2.308000087738037 -84.10399627685547 L 1.8940000534057617 -83.48899841308594 L 1.5838232040405273 -83.28666687011719 L 1.5499999523162842 -83.26461029052734 L 1.538643717765808 -83.2572021484375 z" fill="none" stroke="rgb(255,0,0)" stroke-width="0.001mm" />
</svg>